<svg width="24" height="25" viewBox="0 0 24 25" fill="none" xmlns="http://www.w3.org/2000/svg">
<path d="M8.4 17.22L12 13.62L15.6 17.22L17 15.82L13.4 12.22L17 8.62L15.6 7.22L12 10.82L8.4 7.22L7 8.62L10.6 12.22L7 15.82L8.4 17.22ZM12 22.22C10.6167 22.22 9.31667 21.9575 8.1 21.4325C6.88333 20.9075 5.825 20.195 4.925 19.295C4.025 18.395 3.3125 17.3367 2.7875 16.12C2.2625 14.9033 2 13.6033 2 12.22C2 10.8367 2.2625 9.53667 2.7875 8.32C3.3125 7.10333 4.025 6.045 4.925 5.145C5.825 4.245 6.88333 3.5325 8.1 3.0075C9.31667 2.4825 10.6167 2.22 12 2.22C13.3833 2.22 14.6833 2.4825 15.9 3.0075C17.1167 3.5325 18.175 4.245 19.075 5.145C19.975 6.045 20.6875 7.10333 21.2125 8.32C21.7375 9.53667 22 10.8367 22 12.22C22 13.6033 21.7375 14.9033 21.2125 16.12C20.6875 17.3367 19.975 18.395 19.075 19.295C18.175 20.195 17.1167 20.9075 15.9 21.4325C14.6833 21.9575 13.3833 22.22 12 22.22ZM12 20.22C14.2333 20.22 16.125 19.445 17.675 17.895C19.225 16.345 20 14.4533 20 12.22C20 9.98667 19.225 8.095 17.675 6.545C16.125 4.995 14.2333 4.22 12 4.22C9.76667 4.22 7.875 4.995 6.325 6.545C4.775 8.095 4 9.98667 4 12.22C4 14.4533 4.775 16.345 6.325 17.895C7.875 19.445 9.76667 20.22 12 20.22Z" fill="#404040"/>
</svg>
