<svg width="20" height="21" viewBox="0 0 20 21" fill="none" xmlns="http://www.w3.org/2000/svg">
<g clip-path="url(#clip0_13_106)">
<path d="M10 2.44662H7.08333C6.30978 2.44662 5.56792 2.75392 5.02094 3.3009C4.47396 3.84788 4.16666 4.58974 4.16666 5.36329C4.16666 6.13684 4.47396 6.8787 5.02094 7.42569C5.56792 7.97267 6.30978 8.27996 7.08333 8.27996M10 2.44662V8.27996M10 2.44662H12.9167C13.2997 2.44662 13.679 2.52207 14.0328 2.66864C14.3867 2.81522 14.7082 3.03006 14.9791 3.3009C15.2499 3.57173 15.4647 3.89326 15.6113 4.24713C15.7579 4.601 15.8333 4.98027 15.8333 5.36329C15.8333 5.74631 15.7579 6.12559 15.6113 6.47945C15.4647 6.83332 15.2499 7.15485 14.9791 7.42569C14.7082 7.69652 14.3867 7.91136 14.0328 8.05794C13.679 8.20452 13.2997 8.27996 12.9167 8.27996M10 8.27996H7.08333M10 8.27996H12.9167M10 8.27996V14.1133M7.08333 8.27996C6.30978 8.27996 5.56792 8.58725 5.02094 9.13423C4.47396 9.68121 4.16666 10.4231 4.16666 11.1966C4.16666 11.9702 4.47396 12.712 5.02094 13.259C5.56792 13.806 6.30978 14.1133 7.08333 14.1133M12.9167 8.27996C12.5336 8.27996 12.1544 8.3554 11.8005 8.50198C11.4466 8.64855 11.1251 8.86339 10.8543 9.13423C10.5834 9.40507 10.3686 9.7266 10.222 10.0805C10.0754 10.4343 10 10.8136 10 11.1966C10 11.5796 10.0754 11.9589 10.222 12.3128C10.3686 12.6667 10.5834 12.9882 10.8543 13.259C11.1251 13.5299 11.4466 13.7447 11.8005 13.8913C12.1544 14.0378 12.5336 14.1133 12.9167 14.1133C13.2997 14.1133 13.679 14.0378 14.0328 13.8913C14.3867 13.7447 14.7082 13.5299 14.9791 13.259C15.2499 12.9882 15.4647 12.6667 15.6113 12.3128C15.7579 11.9589 15.8333 11.5796 15.8333 11.1966C15.8333 10.8136 15.7579 10.4343 15.6113 10.0805C15.4647 9.7266 15.2499 9.40507 14.9791 9.13423C14.7082 8.86339 14.3867 8.64855 14.0328 8.50198C13.679 8.3554 13.2997 8.27996 12.9167 8.27996ZM7.08333 14.1133C6.30978 14.1133 5.56792 14.4206 5.02094 14.9676C4.47396 15.5145 4.16666 16.2564 4.16666 17.03C4.16666 17.8035 4.47396 18.5454 5.02094 19.0924C5.56792 19.6393 6.30978 19.9466 7.08333 19.9466C7.85688 19.9466 8.59874 19.6393 9.14573 19.0924C9.69271 18.5454 10 17.8035 10 17.03V14.1133M7.08333 14.1133H10" stroke="#151515" stroke-width="1.5" stroke-linecap="round" stroke-linejoin="round"/>
</g>
<defs>
<clipPath id="clip0_13_106">
<rect width="20" height="20" fill="white" transform="translate(0 0.779968)"/>
</clipPath>
</defs>
</svg>
